<svg id="arrow" width="300" height="200" viewBox="0 0 300 200" fill="none" xmlns="http://www.w3.org/2000/svg">
    <path d="M58 100.323C58 97.5617 60.2386 95.3232 63 95.3232H194C195.105 95.3232 196 96.2186 196 97.3232V103.323C196 104.428 195.105 105.323 194 105.323H63C60.2386 105.323 58 103.085 58 100.323V100.323Z"/>
    <path id="arrow-left" d="M236.728 103.051C234.776 105.004 231.61 105.004 229.657 103.051L190.212 63.6066C188.26 61.654 188.26 58.4882 190.212 56.5355V56.5355C192.165 54.5829 195.331 54.5829 197.283 56.5355L236.728 95.9802C238.681 97.9328 238.681 101.099 236.728 103.051V103.051Z"/>
    <path id="arrow-right" d="M237.544 97.2056C239.497 99.1582 239.497 102.324 237.544 104.277L197.607 144.214C195.654 146.167 192.488 146.167 190.536 144.214V144.214C188.583 142.261 188.583 139.096 190.536 137.143L230.473 97.2056C232.426 95.253 235.591 95.253 237.544 97.2056V97.2056Z"/>
</svg>
